<svg width="128" height="128" xmlns="http://www.w3.org/2000/svg" viewBox="0 0 128 128">
<style>
path{fill:#000}
@media(prefers-color-scheme:dark){path{fill:#ccc}}
</style>
<path fill-rule="evenodd" d="M105.3 99.3h-10V25.8h10.2l10 38.3.9 3.4h.5V25.8h10v73.5h-9.2l-11-38.3-.8-3.4h-.7v41.7zM23.5 78.7l10.6-1a60 60 0 0 0 0 4 53.8 53.8 0 0 0 .1.6q.2 2.3.7 4a9 9 0 0 0 .4 1.3q.4 1 1 1.6a3 3 0 0 0 2.2 1 3.9 3.9 0 0 0 .2 0 4 4 0 0 0 1.4-.3q1.3-.5 2-2 1-2.1 1-5.3a13.4 13.4 0 0 0-.6-3.8 18 18 0 0 0-1.1-2.7q-1.6-3.4-4-6.5L30.8 60q-2.9-4.5-4.5-8.8-1.6-4.3-1.6-9a25.2 25.2 0 0 1 .3-4.3 21 21 0 0 1 .6-2.5 17.4 17.4 0 0 1 1.6-3.7 15.1 15.1 0 0 1 1.2-1.8q1.8-2.3 4.4-3.6a12.3 12.3 0 0 1 4-1.2 15.6 15.6 0 0 1 2-.1 20.5 20.5 0 0 1 3.1.2q1.7.3 3.1.9a11.7 11.7 0 0 1 .8.3q2.9 1.4 4.6 4a16.5 16.5 0 0 1 1.9 3.6 21 21 0 0 1 .7 2.6 31.6 31.6 0 0 1 .7 4.2 40.8 40.8 0 0 1 .2 3.7l-10.6 1-.2-3.7a20.4 20.4 0 0 0-.3-2 16.2 16.2 0 0 0-.3-1.4 8 8 0 0 0-.5-1.3l-.8-1.2a2.8 2.8 0 0 0-2-1 3.7 3.7 0 0 0-.2 0 3.8 3.8 0 0 0-1.2.2q-1.2.3-1.8 1.6a7.5 7.5 0 0 0-.4 1.4q-.3 1.4-.3 3.3a25.7 25.7 0 0 0 0 .3 15.8 15.8 0 0 0 1.9 7.5 18.9 18.9 0 0 0 .3.6q1.5 2.7 3.8 6a147.9 147.9 0 0 0 2.3 3.1 132.9 132.9 0 0 1 3.6 5.2l3 4.6a75.8 75.8 0 0 1 .8 1.5q2.9 5.2 2.9 11.4a32.2 32.2 0 0 1-.4 4.7 26.7 26.7 0 0 1-.5 2.6 18.1 18.1 0 0 1-1.4 3.7 15.3 15.3 0 0 1-1.3 2.2q-1.8 2.5-4.6 3.9a12.9 12.9 0 0 1-3.3 1q-1.4.4-3 .4a22.3 22.3 0 0 1-.5 0 22.2 22.2 0 0 1-3.2-.2q-2.4-.4-4.2-1.3-3-1.4-4.7-4.2a17.2 17.2 0 0 1-1.6-3.5 23.6 23.6 0 0 1-.8-3.3 42.3 42.3 0 0 1-.6-4.2l-.1-4.6a67.2 67.2 0 0 1 0-.1zM59 84.2V40.9a20.5 20.5 0 0 1 .4-4.6 16.7 16.7 0 0 1 1.3-3.5q1.7-3.6 5-5.7t7.7-2.1a16.2 16.2 0 0 1 3.8.4 12.5 12.5 0 0 1 3.9 1.7q3.2 2.1 5 5.7 1.7 3.6 1.7 8.1v43.3q0 4.5-1.8 8.1-1.7 3.6-5 5.7-3.1 2.1-7.6 2.1a16.2 16.2 0 0 1-3.9-.4 12.5 12.5 0 0 1-3.9-1.7q-3.2-2.1-5-5.7-1.6-3.6-1.6-8.1zM1 100V89.4l1 .1a3.2 3.2 0 0 0 .1 0q2.3 0 3.5-1.4a4.6 4.6 0 0 0 1-1.7l.2-1.6a10 10 0 0 0 0-.8V25.8h10.9v59.9q0 4-1.3 7a12.2 12.2 0 0 1-.5 1q-1.7 3.2-5 4.8-3.3 1.6-8 1.6H2a9 9 0 0 1-.6 0 10.7 10.7 0 0 1-.3-.1zm76-15.8V40.9a8.6 8.6 0 0 0-.4-2.4 7.6 7.6 0 0 0-.5-1.3 3.2 3.2 0 0 0-.7-1q-.7-.6-1.6-.7a4 4 0 0 0-.5 0 3.2 3.2 0 0 0-1.2.2q-1 .4-1.5 1.5a7.8 7.8 0 0 0-.8 3.2 9.3 9.3 0 0 0 0 .5v43.3a8.6 8.6 0 0 0 .3 2.4 7.6 7.6 0 0 0 .5 1.3 3.2 3.2 0 0 0 .7 1q.7.6 1.6.7a4 4 0 0 0 .5 0q2 0 2.8-1.7A8.3 8.3 0 0 0 77 85a10 10 0 0 0 0-.8z"/>
</svg>
